C:\Users\r0593348\3dpredictsim\Results\batch_windlass\Pog_s1_tmt_bCst_d00_k800_WL40_ig24_pas_GRF.mot
nRows=15
nColumns=19

name C:\Users\r0593348\3dpredictsim\Results\batch_windlass\Pog_s1_tmt_bCst_d00_k800_WL40_ig24_pas_GRF.mot
datacolumns 19
datarows 15
range 0.0000000000 0.1569101420
endheader
time 	ground_force_vx	ground_force_vy	ground_force_vz	ground_force_px	ground_force_py	ground_force_pz	1_ground_force_vx	1_ground_force_vy	1_ground_force_vz	1_ground_force_px	1_ground_force_py	1_ground_force_pz	ground_torque_x	ground_torque_y	ground_torque_z	1_ground_torque_x	1_ground_torque_y	1_ground_torque_z
        0.0000000000	      -81.0966750465	       65.7631109319	       28.0925140470	        0.1658844497	        0.0000000000	        0.0403334136	       80.4274183162	      426.6779111325	       -3.2415787194	       -0.3205684355	        0.0000000000	       -0.0320341149	        0.0000000000	        0.0000000000	        0.0000000000	        0.0000000000	        0.0000000000	        0.0000000000	
        0.0112078673	     -131.6805778637	      144.6112588644	       68.3508299006	        0.1736343658	        0.0000000000	        0.0380880701	       55.8675702135	      331.5194583496	       -9.8066241231	       -0.3142320731	        0.0000000000	       -0.0295333852	        0.0000000000	        0.0000000000	        0.0000000000	        0.0000000000	        0.0000000000	        0.0000000000	
        0.0224157346	      -63.8068149105	      294.6299182473	       30.5808415456	        0.1796881271	        0.0000000000	        0.0358611464	       29.0543339579	      233.4598943774	      -12.2741332636	       -0.3041224497	        0.0000000000	       -0.0247170671	        0.0000000000	        0.0000000000	        0.0000000000	        0.0000000000	        0.0000000000	        0.0000000000	
        0.0336236019	      -49.8193143402	      476.8975558566	        2.1752126503	        0.1841186878	        0.0000000000	        0.0360623513	       11.9145428117	      162.4480831211	      -10.6943108569	       -0.2922824000	        0.0000000000	       -0.0179217388	        0.0000000000	        0.0000000000	        0.0000000000	        0.0000000000	        0.0000000000	        0.0000000000	
        0.0448314692	      -77.6145246428	      687.9398593147	       -9.2007941418	        0.1925799357	        0.0000000000	        0.0385380623	        2.0748514748	      129.9479908601	       -8.9437880533	       -0.2926525674	        0.0000000000	       -0.0179742078	        0.0000000000	        0.0000000000	        0.0000000000	        0.0000000000	        0.0000000000	        0.0000000000	
        0.0560393364	     -102.4079203490	      816.2396932532	      -14.8787260745	        0.1990420448	        0.0000000000	        0.0404178639	       -3.3160502713	       85.5154772368	       -8.1801503726	       -0.2924995313	        0.0000000000	       -0.0180470786	        0.0000000000	        0.0000000000	        0.0000000000	        0.0000000000	        0.0000000000	        0.0000000000	
        0.0672472037	     -112.4458501507	      861.8838547714	      -16.7451708969	        0.2040261106	        0.0000000000	        0.0417307970	       -9.9456628752	       35.5793242236	       -5.1262474940	       -0.2932636398	        0.0000000000	       -0.0181142385	        0.0000000000	        0.0000000000	        0.0000000000	        0.0000000000	        0.0000000000	        0.0000000000	
        0.0784550710	     -116.4977289340	      869.5910356639	      -16.6656021273	        0.2080687392	        0.0000000000	        0.0426074863	        0.1231105250	       -0.1248745982	        0.0016203770	        0.0000000000	        0.0000000000	        0.0000000000	        0.0000000000	        0.0000000000	        0.0000000000	        0.0000000000	        0.0000000000	        0.0000000000	
        0.0896629383	     -108.1105055366	      858.4985289699	      -16.6529774259	        0.2117284874	        0.0000000000	        0.0429444710	        0.0000728435	       -0.0000613601	       -0.0000045783	        0.0000000000	        0.0000000000	        0.0000000000	        0.0000000000	        0.0000000000	        0.0000000000	        0.0000000000	        0.0000000000	        0.0000000000	
        0.1008708056	      -94.9108445356	      824.4919841169	      -16.6715915865	        0.2154807843	        0.0000000000	        0.0430503123	        0.0000157360	       -0.0000116095	       -0.0000011666	        0.0000000000	        0.0000000000	        0.0000000000	        0.0000000000	        0.0000000000	        0.0000000000	        0.0000000000	        0.0000000000	        0.0000000000	
        0.1120786729	      -82.5626634107	      784.4046962014	      -17.1006710321	        0.2197229403	        0.0000000000	        0.0430520402	        0.0000700113	       -0.0000463608	       -0.0000055814	        0.0000000000	        0.0000000000	        0.0000000000	        0.0000000000	        0.0000000000	        0.0000000000	        0.0000000000	        0.0000000000	        0.0000000000	
        0.1232865402	      -70.7267921220	      743.9052169255	      -17.1455766144	        0.2239512812	        0.0000000000	        0.0429889505	        0.0012897024	       -0.0007808544	       -0.0001085501	        0.0000000000	        0.0000000000	        0.0000000000	        0.0000000000	        0.0000000000	        0.0000000000	        0.0000000000	        0.0000000000	        0.0000000000	
        0.1344944075	      -59.5541451270	      703.6758977334	      -17.0852523707	        0.2278610005	        0.0000000000	        0.0429626313	       -0.0128866247	        0.0073212335	        0.0010901431	        0.0000000000	        0.0000000000	        0.0000000000	        0.0000000000	        0.0000000000	        0.0000000000	        0.0000000000	        0.0000000000	        0.0000000000	
        0.1457022748	      -49.4791054452	      668.3493881445	      -17.2529218752	        0.2315512962	        0.0000000000	        0.0429964426	       -0.0143789843	        0.0077521337	        0.0012020375	        0.0000000000	        0.0000000000	        0.0000000000	        0.0000000000	        0.0000000000	        0.0000000000	        0.0000000000	        0.0000000000	        0.0000000000	
        0.1569101420	      -40.6252673285	      640.0691729934	      -17.7490373777	        0.2352343024	        0.0000000000	        0.0430740193	       -0.0089945311	        0.0046115240	        0.0007533177	        0.0000000000	        0.0000000000	        0.0000000000	        0.0000000000	        0.0000000000	        0.0000000000	        0.0000000000	        0.0000000000	        0.0000000000	
